<?xml version="1.0" encoding="UTF-8"?>
<svg version="1.1" xmlns="http://www.w3.org/2000/svg" width="225" height="225">
<path d="M0 0 C74.25 0 148.5 0 225 0 C225 74.25 225 148.5 225 225 C150.75 225 76.5 225 0 225 C0 150.75 0 76.5 0 0 Z " fill="#0101FC" transform="translate(0,0)"/>
<path d="M0 0 C74.25 0 148.5 0 225 0 C225 74.25 225 148.5 225 225 C150.75 225 76.5 225 0 225 C0 150.75 0 76.5 0 0 Z M95 20 C92.56187529 23.5944217 90.43373785 27.33690171 88.3125 31.125 C87.70728516 32.18396484 87.10207031 33.24292969 86.47851562 34.33398438 C84.64244244 37.55047698 82.82076207 40.77482245 81 44 C79.48635779 46.65598728 77.9687506 49.30967488 76.45068359 51.96313477 C75.47694694 53.66594485 74.50463454 55.36957011 73.53369141 57.07397461 C69.79338919 63.63643769 65.99968605 70.16657168 62.1875 76.6875 C53.37988348 91.75642073 44.63802251 106.86328429 35.98828125 122.0234375 C35.65415222 122.60901428 35.32002319 123.19459106 34.97576904 123.7979126 C33.62690742 126.16229975 32.27823692 128.52679399 30.93096924 130.89208984 C26.77455557 138.18839334 22.57021897 145.45383981 18.3034668 152.6862793 C15.50511272 157.44010971 12.73896932 162.21172346 10 167 C9.5452832 167.79422363 9.09056641 168.58844727 8.62207031 169.40673828 C4.14937648 177.33966758 0.1035291 184.59869126 2 194 C3.67125625 199.01376874 6.5450656 202.22303527 11 205 C19.70035162 208.92446821 28.58943642 208.43057314 37.93725586 208.40405273 C39.75485146 208.40976141 41.57244349 208.41672759 43.39002991 208.42485046 C48.30741896 208.44274159 53.22462918 208.44162116 58.14204097 208.43590808 C62.25478121 208.4328105 66.36748738 208.43891497 70.48022276 208.44494683 C80.18598156 208.45897703 89.89165231 208.45744316 99.59741211 208.44604492 C109.59438938 208.43456378 119.59109837 208.44864279 129.58804029 208.4754414 C138.18705216 208.49762545 146.78597997 208.50422971 155.38501841 208.49836498 C160.51385937 208.49500086 165.64252837 208.49737435 170.77134514 208.51461601 C175.59533239 208.53012632 180.4189233 208.52608434 185.24289513 208.50731087 C187.00767697 208.50363636 188.77248844 208.50670009 190.53724289 208.51719666 C205.2877117 208.86630974 205.2877117 208.86630974 217.95091152 202.19141293 C222.42783941 197.31911345 223.63167344 192.87262622 223.50390625 186.296875 C222.42022853 179.20676651 218.49020713 173.15790334 215 167 C214.43120117 165.98663574 213.86240234 164.97327148 213.27636719 163.92919922 C205.75943195 150.56250133 198.03833304 137.31397646 190.29052734 124.08007812 C185.46189447 115.82269294 180.71500232 107.51991795 175.97949219 99.20898438 C170.80926645 90.13754324 165.57743642 81.10401372 160.29785156 72.09570312 C156.42740361 65.48011633 152.61853466 58.83200676 148.83422852 52.16699219 C145.57734825 46.4324461 142.29503006 40.71271202 139 35 C138.4942041 34.12150391 137.9884082 33.24300781 137.46728516 32.33789062 C129.74911808 18.51955865 129.74911808 18.51955865 117 10 C107.19832588 9.34655506 101.26933017 12.62893272 95 20 Z " fill="#FDFEFE" transform="translate(0,0)"/>
<path d="M0 0 C4.06104642 2.7262969 6.45909735 5.97270678 8.25 10.5 C9.7937753 21.5379934 6.69074115 33.2778146 4.8125 44.125 C4.32043725 47.00815373 3.83124511 49.89175509 3.34544373 52.77597046 C3.04461924 54.55761886 2.73994568 56.33862371 2.43055725 58.11880493 C1.44468032 63.90023932 0.78135052 69.65872792 0.25 75.5 C-5.36 75.5 -10.97 75.5 -16.75 75.5 C-16.95625 73.251875 -17.1625 71.00375 -17.375 68.6875 C-18.04791581 62.05288914 -19.05911466 55.49763815 -20.21875 48.93359375 C-20.35260101 48.1736058 -20.48645203 47.41361786 -20.62435913 46.63059998 C-21.30593862 42.78080348 -22.00280328 38.93439691 -22.71728516 35.09057617 C-26.67029497 13.39763028 -26.67029497 13.39763028 -22.6875 6 C-17.1448658 -1.45228128 -8.61108559 -4.19322429 0 0 Z " fill="#F9FAFD" transform="translate(120.75,62.5)"/>
<path d="M0 0 C4.1796989 2.8497947 7.11864324 5.98092971 8.75 10.875 C9.52514301 17.43194743 8.62712917 21.53084898 4.75 26.875 C0.0718667 31.21083086 -3.68153775 32.23717105 -9.90234375 32.15625 C-14.92279824 31.55479788 -18.21291428 28.9939609 -21.625 25.3125 C-24.85124879 20.47312681 -24.88370351 15.51672154 -24.25 9.875 C-19.29948706 -0.02602588 -10.32307103 -3.57337074 0 0 Z " fill="#F8F9FD" transform="translate(120.25,149.125)"/>
<path d="M0 0 C65.01 0 130.02 0 197 0 C192.62437332 2.91708445 189.87507619 3.14485651 184.73858643 3.13371277 C183.98157023 3.13597833 183.22455404 3.13824388 182.44459796 3.14057809 C179.89436513 3.1469352 177.34418521 3.14608763 174.79394531 3.14526367 C172.9708957 3.14825416 171.14784672 3.15165643 169.32479858 3.15544128 C164.36185914 3.16429826 159.39893692 3.16662015 154.43599033 3.16725707 C150.29589681 3.16820512 146.15580733 3.17188235 142.01571536 3.17542917 C132.247454 3.18358072 122.47920187 3.18601282 112.7109375 3.18530273 C102.63060407 3.18470224 92.5503242 3.19524685 82.47000432 3.2110464 C73.82110697 3.22411993 65.17222712 3.22948669 56.52331996 3.22884732 C51.35542467 3.22859222 46.18757693 3.23145031 41.01969147 3.24202538 C36.15734033 3.2517028 31.29508222 3.25178795 26.43272781 3.24450874 C24.64853149 3.24346235 22.86432938 3.24582901 21.08014297 3.2518692 C18.64310187 3.25958467 16.20638231 3.25494725 13.76934814 3.24723816 C13.06447305 3.25238172 12.35959795 3.25752529 11.63336301 3.26282471 C7.38920756 3.23319022 3.94882506 2.54620663 0 1 C0 0.67 0 0.34 0 0 Z " fill="#2B2CF0" transform="translate(14,205)"/>
<path d="M0 0 C1.36863066 3.69530278 0.41890279 5.45274302 -1 9 C-0.71260075 11.24240782 -0.71260075 11.24240782 0 13 C-1.65 13.33 -3.3 13.66 -5 14 C-5.12375 14.639375 -5.2475 15.27875 -5.375 15.9375 C-5.58125 16.618125 -5.7875 17.29875 -6 18 C-6.66 18.33 -7.32 18.66 -8 19 C-8.36548445 20.32488113 -8.6937566 21.66018514 -9 23 C-10.34051602 26.2555389 -10.92607673 26.95071782 -14 29 C-14.2475 30.0209375 -14.2475 30.0209375 -14.5 31.0625 C-14.665 31.701875 -14.83 32.34125 -15 33 C-16.485 33.495 -16.485 33.495 -18 34 C-16.70994531 29.74045965 -15.0829454 26.12794609 -12.8125 22.3046875 C-12.19632813 21.25925781 -11.58015625 20.21382812 -10.9453125 19.13671875 C-10.30335937 18.06035156 -9.66140625 16.98398438 -9 15.875 C-7.72815319 13.72716231 -6.45727887 11.57874838 -5.1875 9.4296875 C-4.62417969 8.48335449 -4.06085937 7.53702148 -3.48046875 6.56201172 C-2.23408641 4.4050961 -1.08152668 2.24284892 0 0 Z " fill="#110DE2" transform="translate(46,104)"/>
<path d="M0 0 C0.33 0.66 0.66 1.32 1 2 C-0.21484375 4.8203125 -0.21484375 4.8203125 -1.9375 8.125 C-2.50339844 9.22070312 -3.06929687 10.31640625 -3.65234375 11.4453125 C-4.09707031 12.28835937 -4.54179688 13.13140625 -5 14 C-5.66 14 -6.32 14 -7 14 C-7 16.64 -7 19.28 -7 22 C-7.8971875 22.0309375 -7.8971875 22.0309375 -8.8125 22.0625 C-12.28007202 23.54860229 -12.62035777 26.6408711 -14 30 C-14.99 30.33 -15.98 30.66 -17 31 C-15.49539438 25.6708382 -13.02587411 21.32357511 -10.1875 16.625 C-9.76146484 15.90828125 -9.33542969 15.1915625 -8.89648438 14.453125 C-5.99747003 9.59365769 -3.01590246 4.78763407 0 0 Z " fill="#1110DF" transform="translate(87,34)"/>
<path d="M0 0 C0.66 0.33 1.32 0.66 2 1 C1.6390625 1.64324219 1.278125 2.28648437 0.90625 2.94921875 C-2.96829445 10.4938178 -3.60141457 16.59356086 -3 25 C-3.99 25.33 -4.98 25.66 -6 26 C-6 19.4 -6 12.8 -6 6 C-4.68 5.67 -3.36 5.34 -2 5 C-2 4.01 -2 3.02 -2 2 C-1.34 2 -0.68 2 0 2 C0 1.34 0 0.68 0 0 Z " fill="#E7EAFB" transform="translate(6,171)"/>
<path d="M0 0 C3.39417765 3.12621626 5.6062718 5.56541027 7 10 C6.01 9.67 5.02 9.34 4 9 C4 8.34 4 7.68 4 7 C2.02 7 0.04 7 -2 7 C-2 5.68 -2 4.36 -2 3 C-2.99 3.33 -3.98 3.66 -5 4 C-5 3.01 -5 2.02 -5 1 C-3.35 1.33 -1.7 1.66 0 2 C0 1.34 0 0.68 0 0 Z " fill="#0201F5" transform="translate(126,17)"/>
<path d="M0 0 C3.875 1.875 3.875 1.875 5 3 C5.07313567 5.53049402 5.09247527 8.03304837 5.0625 10.5625 C5.05798828 11.27341797 5.05347656 11.98433594 5.04882812 12.71679688 C5.03700864 14.47790013 5.01907263 16.23896036 5 18 C4.01 18.33 3.02 18.66 2 19 C2.03480469 17.69675781 2.03480469 17.69675781 2.0703125 16.3671875 C2.08835938 15.21476563 2.10640625 14.06234375 2.125 12.875 C2.14820313 11.73804688 2.17140625 10.60109375 2.1953125 9.4296875 C1.99672109 5.94242233 1.2524801 3.2446138 0 0 Z " fill="#E4E6FC" transform="translate(220,177)"/>
<path d="M0 0 C3.51098025 4.01254885 5.76537994 8.20983041 8 13 C7.01 13.495 7.01 13.495 6 14 C5.6596875 12.824375 5.6596875 12.824375 5.3125 11.625 C4.21875 8.78125 4.21875 8.78125 1.375 7.6875 C0.59125 7.460625 -0.1925 7.23375 -1 7 C-0.67 4.69 -0.34 2.38 0 0 Z " fill="#0E0EE4" transform="translate(169,89)"/>
<path d="M0 0 C1 2 1 2 0.29296875 4.27734375 C-0.25423828 5.59412109 -0.25423828 5.59412109 -0.8125 6.9375 C-1.16957031 7.81277344 -1.52664062 8.68804687 -1.89453125 9.58984375 C-3 12 -3 12 -5 15 C-5.45394552 17.27912938 -5.45394552 17.27912938 -5.625 19.6875 C-5.69976562 20.49574219 -5.77453125 21.30398437 -5.8515625 22.13671875 C-5.90054687 22.75160156 -5.94953125 23.36648437 -6 24 C-6.33 24 -6.66 24 -7 24 C-8.37327149 14.53968532 -4.49932803 7.96564708 0 0 Z " fill="#140EDA" transform="translate(9,169)"/>
<path d="M0 0 C2.72869407 0.03287583 5.2966618 0.56397771 8 1 C7.14148438 1.38285156 7.14148438 1.38285156 6.265625 1.7734375 C3.75826267 3.13087159 1.8669544 4.71974104 -0.25 6.625 C-0.95640625 7.25664062 -1.6628125 7.88828125 -2.390625 8.5390625 C-2.92171875 9.02117188 -3.4528125 9.50328125 -4 10 C-4.33 9.01 -4.66 8.02 -5 7 C-3.58511552 4.23760649 -2.19636905 2.19636905 0 0 Z " fill="#DEE2FA" transform="translate(101,9)"/>
<path d="M0 0 C0.66 0.33 1.32 0.66 2 1 C1.67 1.66 1.34 2.32 1 3 C1.99 3 2.98 3 4 3 C3.67 4.65 3.34 6.3 3 8 C1.02 8 -0.96 8 -3 8 C-3.33 8.99 -3.66 9.98 -4 11 C-4.33 10.34 -4.66 9.68 -5 9 C-4.00390625 6.8359375 -4.00390625 6.8359375 -2.5625 4.375 C-2.08941406 3.55773437 -1.61632813 2.74046875 -1.12890625 1.8984375 C-0.75636719 1.27195312 -0.38382813 0.64546875 0 0 Z " fill="#0E0EE7" transform="translate(60,80)"/>
<path d="M0 0 C0 1.98 0 3.96 0 6 C-5.61 6 -11.22 6 -17 6 C-17 5.67 -17 5.34 -17 5 C-16.18015625 4.89042969 -15.3603125 4.78085938 -14.515625 4.66796875 C-13.43796875 4.50941406 -12.3603125 4.35085937 -11.25 4.1875 C-10.18265625 4.03667969 -9.1153125 3.88585937 -8.015625 3.73046875 C-5.33703528 3.08163937 -2.3715571 0 0 0 Z " fill="#0F09DD" transform="translate(125,176)"/>
<path d="M0 0 C8 9.42857143 8 9.42857143 8 14 C7.01 13.67 6.02 13.34 5 13 C5 12.34 5 11.68 5 11 C4.360625 10.443125 3.72125 9.88625 3.0625 9.3125 C0.38084069 6.30579108 0.30333855 3.94340119 0 0 Z " fill="#0C09E1" transform="translate(211,162)"/>
<path d="M0 0 C0.33 0 0.66 0 1 0 C1 1.65 1 3.3 1 5 C0.01 5.33 -0.98 5.66 -2 6 C-1.938125 6.763125 -1.87625 7.52625 -1.8125 8.3125 C-2 11 -2 11 -3.375 12.8125 C-5 14 -5 14 -7 14 C-5.23570801 9.02790438 -2.6060834 4.56561939 0 0 Z " fill="#0E0DDA" transform="translate(25,141)"/>
<path d="M0 0 C1.4606285 2.64738916 2 3.89448334 2 7 C0.02 7.66 -1.96 8.32 -4 9 C-4 9.99 -4 10.98 -4 12 C-4.66 12 -5.32 12 -6 12 C-4.43358249 7.69235185 -2.31663844 3.93828536 0 0 Z " fill="#0F0DDF" transform="translate(69,65)"/>
<path d="M0 0 C0.66 0.33 1.32 0.66 2 1 C1.67 2.32 1.34 3.64 1 5 C0.34 4.525625 -0.32 4.05125 -1 3.5625 C-4.7933028 1.58682146 -7.75524068 1.35972537 -12 1 C-7.51541175 -1.49143792 -4.48066322 -2.98710881 0 0 Z " fill="#0C0BE1" transform="translate(121,60)"/>
<path d="M0 0 C0.99 0.33 1.98 0.66 3 1 C3.99 0.67 4.98 0.34 6 0 C6.93423645 3.01031744 7.04449911 3.86650268 6 7 C5.01 7 4.02 7 3 7 C2.01 4.69 1.02 2.38 0 0 Z " fill="#F2F2FA" transform="translate(208,155)"/>
<path d="M0 0 C0.33 0.66 0.66 1.32 1 2 C-0.21484375 4.8203125 -0.21484375 4.8203125 -1.9375 8.125 C-2.50339844 9.22070312 -3.06929688 10.31640625 -3.65234375 11.4453125 C-4.09707031 12.28835937 -4.54179688 13.13140625 -5 14 C-5.66 14 -6.32 14 -7 14 C-7 14.66 -7 15.32 -7 16 C-7.66 15.67 -8.32 15.34 -9 15 C-6.03 10.05 -3.06 5.1 0 0 Z " fill="#1A18D6" transform="translate(87,34)"/>
<path d="M0 0 C1.27514492 3.82543475 0.52740413 5.33423008 -1 9 C-2.5 10.875 -2.5 10.875 -4 12 C-4.66 12 -5.32 12 -6 12 C-4.43358249 7.69235185 -2.31663844 3.93828536 0 0 Z " fill="#110EDE" transform="translate(95,20)"/>
<path d="M0 0 C2.40575607 2.18517099 3.79535581 4.25919671 5.1875 7.1875 C5.53167969 7.90292969 5.87585938 8.61835937 6.23046875 9.35546875 C6.48441406 9.89816406 6.73835937 10.44085938 7 11 C6.01 11.495 6.01 11.495 5 12 C2 10 2 10 1.375 7.125 C1.25125 6.09375 1.1275 5.0625 1 4 C0.68325425 2.66262906 0.35729936 1.32711192 0 0 Z " fill="#140DE2" transform="translate(159,72)"/>
<path d="M0 0 C6 7.71428571 6 7.71428571 6 11 C5.34 11 4.68 11 4 11 C3.67 11.66 3.34 12.32 3 13 C2.49242138 11.58603098 1.99425075 10.16868271 1.5 8.75 C1.08234375 7.56664062 1.08234375 7.56664062 0.65625 6.359375 C0 4 0 4 0 0 Z " fill="#1211E2" transform="translate(145,47)"/>
<path d="M0 0 C-0.0625 1.75 -0.0625 1.75 -1 4 C-3.25123006 5.72518887 -5.40134903 6.76906007 -8 8 C-8.66 7.67 -9.32 7.34 -10 7 C-8.71372289 5.82739389 -7.42080217 4.6620717 -6.125 3.5 C-5.04605469 2.52546875 -5.04605469 2.52546875 -3.9453125 1.53125 C-2 0 -2 0 0 0 Z " fill="#0E0DE4" transform="translate(107,11)"/>
<path d="M0 0 C0.66 0 1.32 0 2 0 C2.33 0.66 2.66 1.32 3 2 C5.01669827 3.13350534 5.01669827 3.13350534 7 4 C6.34 5.32 5.68 6.64 5 8 C0 2.25 0 2.25 0 0 Z " fill="#DBE5FB" transform="translate(97,170)"/>
<path d="M0 0 C0.99 0.33 1.98 0.66 3 1 C0.525 5.455 0.525 5.455 -2 10 C-2.33 10 -2.66 10 -3 10 C-3.36629408 5.72656908 -2.40814077 3.51187196 0 0 Z " fill="#E0E8FD" transform="translate(91,22)"/>
<path d="M0 0 C3.39417765 3.12621626 5.6062718 5.56541027 7 10 C4 9 4 9 2.375 6.125 C1 3 1 3 0 0 Z " fill="#0F0BD9" transform="translate(126,17)"/>
<path d="M0 0 C2.0625 0.4375 2.0625 0.4375 4 1 C2.25 4.875 2.25 4.875 0 6 C-0.38218767 4.34385343 -0.71395102 2.67542976 -1 1 C-0.67 0.67 -0.34 0.34 0 0 Z " fill="#E6EAFA" transform="translate(122,172)"/>
<path d="M0 0 C2.475 0.495 2.475 0.495 5 1 C4.67 2.32 4.34 3.64 4 5 C3.01 4.67 2.02 4.34 1 4 C0.3125 1.9375 0.3125 1.9375 0 0 Z " fill="#EEECFA" transform="translate(147,49)"/>
<path d="M0 0 C1.65 1.65 3.3 3.3 5 5 C4.34 6.32 3.68 7.64 3 9 C1.68 6.36 0.36 3.72 -1 1 C-0.67 0.67 -0.34 0.34 0 0 Z " fill="#E7EAFD" transform="translate(143,40)"/>
<path d="M0 0 C0.99 0.33 1.98 0.66 3 1 C2.67 2.65 2.34 4.3 2 6 C1.01 5.34 0.02 4.68 -1 4 C-0.67 2.68 -0.34 1.36 0 0 Z " fill="#0709E9" transform="translate(218,194)"/>
<path d="M0 0 C1.65 1.65 3.3 3.3 5 5 C4.01 5.66 3.02 6.32 2 7 C0 4 0 4 0 0 Z M1 7 C1.33 7.66 1.66 8.32 2 9 C1.34 8.67 0.68 8.34 0 8 C0.33 7.67 0.66 7.34 1 7 Z " fill="#0404E2" transform="translate(97,172)"/>
<path d="M0 0 C0.99 0.33 1.98 0.66 3 1 C1.68 3.31 0.36 5.62 -1 8 C-1.33 8 -1.66 8 -2 8 C-1.125 1.125 -1.125 1.125 0 0 Z " fill="#DADEFB" transform="translate(29,130)"/>
<path d="M0 0 C4.8 2.46153846 4.8 2.46153846 5.8125 5.1875 C5.874375 5.785625 5.93625 6.38375 6 7 C4.68 6.34 3.36 5.68 2 5 C2 4.34 2 3.68 2 3 C1.34 3 0.68 3 0 3 C0 2.01 0 1.02 0 0 Z " fill="#E4E7FB" transform="translate(121,64)"/>
</svg>
